<svg width="60" height="60" viewBox="0 0 60 60" fill="none" xmlns="http://www.w3.org/2000/svg">
<path d="M59.1841 29.6658L47.3992 22.1384L59.1841 14.611C59.6924 14.2863 60 13.7249 60 13.1217C60 12.5186 59.6924 11.9573 59.1841 11.6325L45.0678 2.61578C44.4878 2.24512 43.7453 2.24524 43.1655 2.61578L29.9999 11.025L16.8347 2.61578C16.2546 2.24524 15.5123 2.24524 14.9324 2.61578L0.815975 11.6325C0.307617 11.9573 0 12.5187 0 13.1217C0 13.7248 0.307617 14.2863 0.815975 14.611L12.6009 22.1384L0.815975 29.6658C0.307617 29.9905 0 30.5518 0 31.155C0 31.7582 0.307617 32.3196 0.815975 32.6442L14.9324 41.6608C15.2224 41.8461 15.553 41.9387 15.8836 41.9387C16.2141 41.9387 16.5449 41.846 16.8348 41.6609L29.9999 33.2518L43.1652 41.6608C43.4553 41.846 43.7859 41.9386 44.1164 41.9386C44.447 41.9386 44.7776 41.846 45.0676 41.6607L59.184 32.6441C59.6923 32.3195 60 31.758 60 31.1549C60 30.5517 59.6923 29.9905 59.1841 29.6658ZM29.9999 29.0583L19.1662 22.1384L29.9999 15.2187L40.8337 22.1385L29.9999 29.0583Z" fill="#5582FF"/>
<path d="M45.0678 45.3889L30.9512 36.3723C30.3711 36.0017 29.6288 36.0017 29.0489 36.3723L14.9322 45.3889C14.424 45.7136 14.1163 46.2751 14.1163 46.8782C14.1163 47.4814 14.4239 48.0428 14.9322 48.3674L29.0487 57.3842C29.3388 57.5693 29.6694 57.6619 30 57.6619C30.3305 57.6619 30.6611 57.5693 30.9512 57.3842L45.0677 48.3674C45.5759 48.0428 45.8836 47.4814 45.8836 46.8782C45.8836 46.2751 45.5759 45.7136 45.0678 45.3889Z" fill="#5582FF"/>
<path d="M59.9999 13.1217C59.9999 12.5186 59.6923 11.9573 59.184 11.6325L45.0677 2.61591C44.4878 2.24524 43.7453 2.24536 43.1654 2.61591L29.9999 11.025L29.9996 11.0248V15.2188L29.9999 15.2186L40.8337 22.1384L29.9999 29.0582L29.9996 29.0579V33.2519L29.9999 33.2517L43.1652 41.6607C43.4552 41.8459 43.7858 41.9384 44.1164 41.9384C44.447 41.9384 44.7776 41.8459 45.0676 41.6606L59.184 32.644C59.6923 32.3194 59.9999 31.7579 59.9999 31.1548C59.9999 30.5516 59.6923 29.9903 59.184 29.6655L47.3991 22.1381L59.184 14.6107C59.6923 14.2864 59.9999 13.7249 59.9999 13.1217Z" fill="#2864F0"/>
<path d="M45.0677 45.3889L30.9511 36.3723C30.6612 36.1871 30.3308 36.0945 30.0004 36.0945V57.6619C30.3308 57.6618 30.6613 57.5692 30.9511 57.3842L45.0676 48.3674C45.5758 48.0428 45.8836 47.4814 45.8836 46.8782C45.8836 46.2751 45.5758 45.7136 45.0677 45.3889Z" fill="#2864F0"/>
</svg>
