<svg width="60" height="60" viewBox="0 0 60 60" fill="none" xmlns="http://www.w3.org/2000/svg">
<path d="M21.3492 56.2032C22.2024 55.836 22.8 54.9876 22.8 54V47.52C22.8 47.2836 22.8192 47.0376 22.8492 46.788C22.8324 46.7928 22.8168 46.7964 22.8 46.8C22.8 46.8 19.2 46.8 18.48 46.8C16.68 46.8 15.12 46.08 14.4 44.64C13.56 43.08 13.2 40.44 11.04 39C10.68 38.76 10.92 38.4 11.64 38.4C12.36 38.52 13.92 39.48 14.88 40.8C15.96 42.12 17.04 43.2 18.96 43.2C21.9444 43.2 23.544 43.05 24.5064 42.534C25.6272 40.8672 27.1788 39.6 28.8 39.6V39.57C21.9984 39.3516 17.6532 37.0908 15.63 33.6C11.232 33.6504 7.40282 34.086 5.21762 34.4484C5.14802 34.056 5.08802 33.6612 5.03642 33.264C7.19282 32.9088 10.848 32.4876 15.0504 32.4072C14.916 32.076 14.7996 31.7364 14.7012 31.3884C10.488 31.1748 6.85202 31.3416 4.87682 31.5048C4.85282 31.1064 4.82042 30.7092 4.81562 30.306C6.79442 30.144 10.332 29.982 14.4372 30.1728C14.3424 29.5728 14.2812 28.9596 14.2812 28.3212C14.2812 26.2812 15.0012 24.1212 16.3212 22.3212C15.7212 20.2812 14.8812 15.9612 16.5612 14.4012C19.8012 14.4012 22.0812 15.9612 23.1612 16.9212C25.2 16.08 27.48 15.6 30 15.6C32.52 15.6 34.8 16.08 36.72 16.92C37.8 15.96 40.08 14.4 43.32 14.4C45.12 16.08 44.16 20.4 43.56 22.32C44.88 24.12 45.6 26.16 45.48 28.32C45.48 28.9008 45.426 29.4612 45.348 30.0108C49.5468 29.8044 53.1804 29.97 55.1928 30.1332C55.1904 30.5376 55.1532 30.9324 55.1316 31.332C53.1264 31.1664 49.4016 30.996 45.1008 31.2252C44.994 31.6284 44.8644 32.0208 44.7108 32.4012C48.966 32.4564 52.7088 32.868 54.9684 33.228C54.9168 33.6264 54.8568 34.0212 54.7872 34.4124C52.4928 34.0452 48.582 33.6156 44.1324 33.594C42.1344 37.0476 37.8684 39.3 31.2 39.5628V39.6C34.32 39.6 37.2 44.28 37.2 47.52V54C37.2 54.9876 37.7976 55.836 38.6508 56.2032C49.644 52.5648 57.6 42.1968 57.6 30C57.6 14.7816 45.2196 2.40002 30 2.40002C14.7804 2.40002 2.40002 14.7816 2.40002 30C2.40002 42.1968 10.356 52.5648 21.3492 56.2032Z" fill="black"/>
</svg>
