<svg width="60" height="60" viewBox="0 0 60 60" fill="none" xmlns="http://www.w3.org/2000/svg">
<path d="M56.25 20.25L50 23.6875L43.75 29.625V50H52.5C54.5712 50 56.25 48.3212 56.25 46.25V20.25Z" fill="#4CAF50"/>
<path d="M3.75 20.25L8.2675 22.3875L16.25 29.625V50H7.5C5.42875 50 3.75 48.3212 3.75 46.25V20.25Z" fill="#1E88E5"/>
<path d="M43.75 14L30 24.3125L16.25 14L15 21.25L16.25 29.625L30 39.9375L43.75 29.625L45 21.25L43.75 14Z" fill="#E53935"/>
<path d="M3.75 15.3725V20.25L16.25 29.625V14L12.345 11.0738C11.415 10.3763 10.285 10 9.1225 10C6.155 10 3.75 12.405 3.75 15.3725Z" fill="#C62828"/>
<path d="M56.25 15.3725V20.25L43.75 29.625V14L47.655 11.0738C48.585 10.3763 49.715 10 50.8775 10C53.845 10 56.25 12.405 56.25 15.3725Z" fill="#FBC02D"/>
</svg>
