<svg width="60" height="60" viewBox="0 0 60 60" fill="none" xmlns="http://www.w3.org/2000/svg">
<g clip-path="url(#clip0_102_261)">
<path fill-rule="evenodd" clip-rule="evenodd" d="M10.0059 0H49.9952C55.4943 0 60 4.50457 60 10.0059V49.9952C60 55.4954 55.4943 60 49.9952 60H10.0059C4.50457 60 0 55.4954 0 49.9952V10.0059C0 4.50457 4.50457 0 10.0059 0Z" fill="url(#paint0_linear_102_261)"/>
<path fill-rule="evenodd" clip-rule="evenodd" d="M43.962 30C43.962 27.2386 43.1431 24.5392 41.6089 22.2432C40.0748 19.9472 37.8942 18.1576 35.343 17.1009C32.7918 16.0441 29.9845 15.7676 27.2761 16.3064C24.5678 16.8451 22.08 18.1748 20.1274 20.1274C18.1748 22.0801 16.845 24.5679 16.3063 27.2762C15.7676 29.9846 16.0441 32.7918 17.1008 35.3431C18.1576 37.8943 19.9471 40.0748 22.2431 41.609C24.5392 43.1432 27.2386 43.962 30 43.962C31.8336 43.9623 33.6493 43.6014 35.3433 42.8998C37.0374 42.1983 38.5767 41.1698 39.8732 39.8733C41.1698 38.5767 42.1982 37.0375 42.8998 35.3434C43.6013 33.6493 43.9622 31.8336 43.962 30ZM43.6976 14.1404C43.2533 14.1404 42.8189 14.2722 42.4494 14.5191C42.0799 14.766 41.7919 15.1169 41.6219 15.5274C41.4518 15.938 41.4073 16.3897 41.494 16.8255C41.5807 17.2614 41.7947 17.6617 42.1089 17.9759C42.4231 18.2901 42.8235 18.5041 43.2593 18.5908C43.6951 18.6775 44.1469 18.633 44.5574 18.463C44.968 18.2929 45.3189 18.0049 45.5658 17.6355C45.8126 17.266 45.9444 16.8316 45.9444 16.3872C45.9445 16.0921 45.8865 15.7999 45.7737 15.5272C45.6608 15.2546 45.4953 15.0068 45.2867 14.7982C45.078 14.5895 44.8303 14.424 44.5576 14.3112C44.2849 14.1983 43.9927 14.1403 43.6976 14.1404ZM18.5866 10.9112H41.4112C43.4452 10.9162 45.3945 11.7265 46.8327 13.1648C48.2708 14.6032 49.0808 16.5526 49.0855 18.5866V41.4113C49.0829 43.446 48.2736 45.3967 46.835 46.8357C45.3964 48.2747 43.4459 49.0845 41.4112 49.0878H18.5877C16.5533 49.0831 14.6035 48.2728 13.1651 46.8341C11.7267 45.3955 10.9166 43.4457 10.9123 41.4113V18.5877C10.9187 16.5541 11.7294 14.6055 13.1674 13.1675C14.6054 11.7294 16.554 10.9187 18.5877 10.9123L18.5866 10.9112ZM41.4112 8.35388H18.5877C12.9608 8.35388 8.35382 12.9609 8.35382 18.5877V41.4113C8.3608 44.1233 9.44125 46.7223 11.359 48.64C13.2767 50.5577 15.8756 51.6381 18.5877 51.6451H41.4112C44.124 51.6402 46.7242 50.5604 48.6426 48.6423C50.5609 46.7242 51.6409 44.124 51.6462 41.4113V18.5877C51.6462 12.9609 47.0491 8.35388 41.4134 8.35388H41.4112ZM18.9368 30C18.9366 27.8116 19.5853 25.6723 20.801 23.8526C22.0167 22.033 23.7447 20.6147 25.7665 19.7771C27.7882 18.9395 30.013 18.7203 32.1594 19.1472C34.3057 19.5741 36.2773 20.6279 37.8247 22.1753C39.3722 23.7228 40.4259 25.6943 40.8528 27.8407C41.2797 29.987 41.0605 32.2118 40.2229 34.2336C39.3854 36.2554 37.9671 37.9833 36.1474 39.199C34.3277 40.4147 32.1884 41.0634 30 41.0632C27.0661 41.0624 24.2527 39.8965 22.1781 37.8219C20.1035 35.7474 18.9377 32.9339 18.9368 30Z" fill="white"/>
</g>
<defs>
<linearGradient id="paint0_linear_102_261" x1="50.0977" y1="48.2066" x2="9.03998" y2="11.0114" gradientUnits="userSpaceOnUse">
<stop stop-color="#FEC053"/>
<stop offset="0.33" stop-color="#F2203E"/>
<stop offset="0.65" stop-color="#B729A8"/>
<stop offset="1" stop-color="#5342D6"/>
</linearGradient>
<clipPath id="clip0_102_261">
<rect width="60" height="60" fill="white"/>
</clipPath>
</defs>
</svg>
