<svg width="60" height="60" viewBox="0 0 60 60" fill="none" xmlns="http://www.w3.org/2000/svg">
<path d="M43.2 4.79999H16.8C10.1832 4.79999 4.8 10.1832 4.8 16.8V43.2C4.8 49.8168 10.1832 55.2 16.8 55.2H43.2C49.8168 55.2 55.2 49.8168 55.2 43.2V16.8C55.2 10.1832 49.8168 4.79999 43.2 4.79999ZM30 43.11C28.6344 43.11 27.3132 42.9564 26.0412 42.6924C23.7852 44.1864 20.7936 45.2244 18 45.72C19.4052 44.3484 20.8644 42.8136 21.6168 41.1828C16.5912 38.7012 13.2 34.0716 13.2 28.7544C13.2 20.8272 20.7216 14.4 30 14.4C39.2784 14.4 46.8 20.8272 46.8 28.7544C46.8 36.6816 39.2784 43.11 30 43.11Z" fill="url(#paint0_linear_104_293)"/>
<defs>
<linearGradient id="paint0_linear_104_293" x1="12" y1="4.79999" x2="30" y2="55.2" gradientUnits="userSpaceOnUse">
<stop stop-color="#80FF00"/>
<stop offset="1" stop-color="#34DF3B"/>
</linearGradient>
</defs>
</svg>
