<svg width="60" height="60" viewBox="0 0 60 60" fill="none" xmlns="http://www.w3.org/2000/svg">
<g clip-path="url(#clip0_102_246)">
<path d="M30 60C46.5685 60 60 46.5685 60 30C60 13.4315 46.5685 0 30 0C13.4315 0 0 13.4315 0 30C0 46.5685 13.4315 60 30 60Z" fill="url(#paint0_linear_102_246)"/>
<path fill-rule="evenodd" clip-rule="evenodd" d="M30 11.5167C40.3466 11.5167 48.6567 19.6582 48.6567 29.666C48.6567 39.6737 40.3454 47.8152 30 47.8152C27.9645 47.8152 26.014 47.4758 24.1493 46.8821L20.757 48.3239C18.8063 49.1719 18.043 48.4087 18.043 46.034V43.6594C13.9702 40.2669 11.3433 35.263 11.3433 29.6657C11.3433 19.6582 19.7394 11.5164 30 11.5164V11.5167Z" fill="white"/>
<path fill-rule="evenodd" clip-rule="evenodd" d="M19.3134 34.2454L23.8089 27.3758C24.4027 26.3582 24.9964 25.3406 26.2686 25.086C27.2015 24.8316 27.9648 25.1707 28.728 25.7645L32.714 28.7328C33.3925 29.2418 33.5624 29.2418 34.2406 28.7328L39.4137 24.9164C40.7707 23.814 41.9579 24.4925 41.0257 26.0191L36.1069 33.9063C36.1069 33.9063 35.0042 35.6872 33.4776 35.6024C33.4776 35.6024 32.3752 35.6024 31.6119 34.9239L27.3713 31.6164C26.8639 31.277 26.608 31.277 26.0146 31.7012L20.6713 35.7719C19.1448 36.9594 18.2119 35.9415 19.3143 34.2454H19.3134Z" fill="url(#paint1_linear_102_246)"/>
</g>
<defs>
<linearGradient id="paint0_linear_102_246" x1="7.70537" y1="9.92597" x2="52.2946" y2="50.074" gradientUnits="userSpaceOnUse">
<stop stop-color="#0496FB"/>
<stop offset="0.22" stop-color="#3F72FF"/>
<stop offset="0.49" stop-color="#784AFF"/>
<stop offset="0.66" stop-color="#B038EE"/>
<stop offset="0.77" stop-color="#CD40BE"/>
<stop offset="1" stop-color="#FF5A5A"/>
</linearGradient>
<linearGradient id="paint1_linear_102_246" x1="24.9812" y1="25.7254" x2="35.234" y2="34.9573" gradientUnits="userSpaceOnUse">
<stop stop-color="#0496FB"/>
<stop offset="0.22" stop-color="#3F72FF"/>
<stop offset="0.49" stop-color="#784AFF"/>
<stop offset="0.66" stop-color="#B038EE"/>
<stop offset="0.77" stop-color="#CD40BE"/>
<stop offset="1" stop-color="#FF5A5A"/>
</linearGradient>
<clipPath id="clip0_102_246">
<rect width="60" height="60" fill="white"/>
</clipPath>
</defs>
</svg>
