<svg width="60" height="49" viewBox="0 0 60 49" fill="none" xmlns="http://www.w3.org/2000/svg">
<path d="M60 6.30065C57.8463 7.25778 55.5298 7.89642 53.0863 8.19858C55.5705 6.71878 57.4816 4.35862 58.3786 1.57052C56.054 2.93762 53.4786 3.94212 50.7388 4.47132C48.5509 2.14382 45.4302 0.699951 41.9726 0.699951C35.3307 0.699951 29.9472 6.05402 29.9472 12.656C29.9472 13.5902 30.0563 14.5 30.2614 15.3836C20.2693 14.8806 11.407 10.1145 5.47815 2.88209C4.43629 4.64935 3.85024 6.71878 3.85024 8.90255C3.85024 13.0529 5.96815 16.7066 9.19791 18.8594C7.22652 18.7989 5.3707 18.2485 3.74605 17.3665C3.74605 17.4024 3.74605 17.4563 3.74605 17.507C3.74605 23.3069 7.89233 28.1367 13.3881 29.2359C12.3837 29.512 11.3223 29.6655 10.2284 29.6655C9.45187 29.6655 8.69489 29.5773 7.96233 29.445C9.49257 34.1849 13.9319 37.6492 19.1916 37.7521C15.0763 40.9534 9.89303 42.871 4.25722 42.871C3.28373 42.871 2.3314 42.8155 1.39047 42.7011C6.71536 46.0838 13.0381 48.0666 19.8249 48.0666C41.94 48.0666 54.0386 29.8452 54.0386 14.0378C54.0386 13.52 54.0223 13.0039 53.9979 12.4943C56.3584 10.8217 58.3933 8.71145 60 6.30065Z" fill="#03A9F4"/>
</svg>
