<svg width="60" height="60" viewBox="0 0 60 60" fill="none" xmlns="http://www.w3.org/2000/svg">
<g clip-path="url(#clip0_102_266)">
<path d="M50.0874 0H9.91258C4.43801 0 0 4.43801 0 9.91258V50.0874C0 55.562 4.43801 60 9.91258 60H50.0874C55.562 60 60 55.562 60 50.0874V9.91258C60 4.43801 55.562 0 50.0874 0Z" fill="url(#paint0_linear_102_266)"/>
<path fill-rule="evenodd" clip-rule="evenodd" d="M50.4556 29.4745C50.4556 40.4793 41.4646 49.4025 30.3733 49.4025C26.9795 49.4083 23.6395 48.5549 20.6644 46.9218L9.54437 50.4557L13.1688 39.7594C11.281 36.6613 10.2845 33.1024 10.289 29.4745C10.2849 18.4676 19.2801 9.54443 30.3733 9.54443C41.4666 9.54443 50.4556 18.4676 50.4556 29.4745ZM30.3733 12.7184C21.0593 12.7184 13.4855 20.2345 13.4855 29.4745C13.4842 33.0083 14.6113 36.4501 16.7027 39.2986L14.6045 45.5189L21.0922 43.4619C23.8521 45.2732 27.0824 46.2358 30.3836 46.2306C39.6914 46.2306 47.2673 38.7165 47.2673 29.4786C47.2673 20.2407 39.6914 12.7225 30.3836 12.7225L30.3733 12.7184ZM40.5225 34.0636C40.397 33.8579 40.0699 33.7386 39.5783 33.4938C39.0867 33.2491 36.6656 32.0663 36.2131 31.9038C35.7606 31.7413 35.4335 31.6611 35.1064 32.1486C34.7794 32.6361 33.8352 33.7386 33.5473 34.0636C33.2593 34.3886 32.9734 34.4298 32.4817 34.185C31.9901 33.9402 30.4001 33.4239 28.5221 31.7619C27.4453 30.7777 26.5193 29.6403 25.7739 28.3864C25.488 27.8968 25.7451 27.6335 25.9796 27.3887C26.2141 27.1439 26.4712 26.8189 26.7181 26.5351C26.9212 26.2863 27.0869 26.0091 27.2097 25.7123C27.2753 25.5777 27.306 25.4287 27.2988 25.2792C27.2916 25.1296 27.2468 24.9843 27.1686 24.8566C27.0472 24.6139 26.0619 22.2092 25.6505 21.2301C25.2391 20.251 24.8277 20.2901 24.5418 20.2901C24.2661 20.3026 23.9913 20.3314 23.719 20.3765C23.719 20.3765 22.7317 20.4978 22.2791 20.9936C21.8266 21.4893 20.5574 22.6638 20.5574 25.0664C20.5574 27.4689 22.3203 29.7974 22.565 30.1163C22.8098 30.4351 25.9714 35.5364 30.976 37.4926C35.9807 39.4488 35.9807 38.7967 36.8837 38.7124C37.7867 38.628 39.7964 37.5317 40.2077 36.3921C40.6191 35.2525 40.6191 34.2714 40.4957 34.0698L40.5225 34.0636Z" fill="white"/>
</g>
<defs>
<linearGradient id="paint0_linear_102_266" x1="29.999" y1="0" x2="29.999" y2="60" gradientUnits="userSpaceOnUse">
<stop stop-color="#4AC14B"/>
<stop offset="1" stop-color="#06853A"/>
</linearGradient>
<clipPath id="clip0_102_266">
<rect width="60" height="60" fill="white"/>
</clipPath>
</defs>
</svg>
